<svg xmlns="http://www.w3.org/2000/svg"  viewBox="0 0 30 30" width="40px" height="40px"><path fill="#ffc49c" d="M11 8H19V23H11z"/><path fill="#f78f8f" d="M12,15.5c0-2.59,1.168-4.909,3-6.469l-0.399-0.942c-1.45-1-3.206-1.589-5.101-1.589 c-4.971,0-9,4.029-9,9c0,4.971,4.029,9,9,9c1.895,0,3.651-0.589,5.101-1.589L15,21.969C13.168,20.409,12,18.09,12,15.5z"/><path fill="#ffeea3" d="M20.5,6.5c-1.895,0-3.651,0.589-5.101,1.589L15,9.031c1.832,1.56,3,3.879,3,6.469 s-1.168,4.909-3,6.469l0.399,0.942c1.45,1,3.206,1.589,5.101,1.589c4.971,0,9-4.029,9-9C29.5,10.529,25.471,6.5,20.5,6.5z"/><path fill="#c74343" d="M14.19,22.582C12.845,23.476,11.233,24,9.5,24C4.813,24,1,20.187,1,15.5S4.813,7,9.5,7 c1.733,0,3.345,0.524,4.69,1.418c0.283,0.188,0.552,0.394,0.81,0.613c0.258-0.219,0.527-0.425,0.81-0.613 C15.551,8.187,15.282,7.97,15,7.768C13.446,6.66,11.55,6,9.5,6C4.262,6,0,10.262,0,15.5S4.262,25,9.5,25 c2.05,0,3.946-0.66,5.5-1.768c0.282-0.201,0.551-0.419,0.81-0.649c-0.283-0.188-0.552-0.394-0.81-0.613 C14.742,22.189,14.473,22.394,14.19,22.582z"/><path fill="#ba9b48" d="M20.5,6c-2.05,0-3.946,0.66-5.5,1.768c-0.282,0.201-0.551,0.419-0.81,0.649 c0.283,0.188,0.552,0.394,0.81,0.613c0.258-0.219,0.527-0.425,0.81-0.613C17.155,7.524,18.767,7,20.5,7c4.687,0,8.5,3.813,8.5,8.5 S25.187,24,20.5,24c-1.733,0-3.345-0.524-4.69-1.418c-0.283-0.188-0.552-0.394-0.81-0.613c-0.258,0.219-0.527,0.425-0.81,0.613 c0.258,0.23,0.527,0.448,0.81,0.649C16.554,24.34,18.45,25,20.5,25c5.238,0,9.5-4.262,9.5-9.5S25.738,6,20.5,6z"/></svg>